<?xml version="1.0" encoding="UTF-8" standalone="no"?>
<!DOCTYPE svg PUBLIC "-//W3C//DTD SVG 1.1//EN" "http://www.w3.org/Graphics/SVG/1.1/DTD/svg11.dtd">
<svg version="1.1" xmlns="http://www.w3.org/2000/svg" xmlns:xlink="http://www.w3.org/1999/xlink" preserveAspectRatio="xMidYMid meet" viewBox="56.367421209917666 46.24117650860171 4807.682592565579 2774.2218631973265" width="4096" height="2770.22"><defs><path d="M3782.98 51.05L3828.05 55.78L3872.79 62.37L3917.15 70.8L3961.09 81.06L4004.56 93.12L4047.51 106.97L4089.89 122.58L4131.66 139.95L4172.76 159.05L4213.15 179.86L4252.79 202.36L4291.61 226.54L4329.58 252.38L4366.65 279.86L4402.77 308.96L4437.89 339.66L4471.97 371.95L4504.95 405.8L4536.79 441.2L4567.44 478.12L4596.85 516.56L4624.97 556.49L4651.76 597.89L4677.17 640.75L4701.16 685.05L4723.66 730.76L4744.64 777.87L4764.04 826.37L4781.83 876.22L4797.94 927.43L4812.34 979.95L4824.98 1033.79L4835.8 1088.91L4844.76 1145.31L4851.82 1202.96L4856.91 1261.84L4860.01 1321.94L4861.05 1383.23L4861.05 1402.88L4859.92 1470.63L4856.56 1536.81L4851.04 1601.44L4843.41 1664.49L4833.73 1725.96L4822.06 1785.85L4808.46 1844.13L4792.99 1900.81L4775.71 1955.88L4756.68 2009.33L4735.95 2061.14L4713.58 2111.32L4689.64 2159.85L4664.18 2206.73L4637.26 2251.94L4608.94 2295.48L4579.28 2337.34L4548.34 2377.52L4516.17 2415.99L4482.85 2452.77L4448.41 2487.83L4412.93 2521.16L4376.47 2552.77L4339.07 2582.64L4300.8 2610.77L4261.73 2637.14L4221.9 2661.74L4181.38 2684.58L4140.23 2705.64L4098.5 2724.91L4056.26 2742.38L4013.56 2758.05L3970.46 2771.91L3927.02 2783.94L3883.31 2794.15L3839.37 2802.52L3795.27 2809.05L3751.07 2813.72L3706.82 2816.53L3662.59 2817.46L3634.57 2817.36L3606.51 2817.02L3578.42 2816.37L3550.27 2815.37L3522.08 2813.95L3493.84 2812.06L3465.55 2809.63L3437.2 2806.62L3408.79 2802.95L3380.31 2798.58L3351.78 2793.45L3323.17 2787.49L3294.5 2780.65L3265.75 2772.88L3236.93 2764.11L3208.03 2754.28L3179.05 2743.34L3149.99 2731.23L3120.84 2717.89L3091.6 2703.27L3062.26 2687.3L3032.83 2669.92L3003.31 2651.09L2973.68 2630.74L2943.96 2608.81L2914.12 2585.25L2884.18 2559.99L2854.12 2532.98L2823.95 2504.17L2793.67 2473.49L2763.26 2440.88L2732.73 2406.29L2702.08 2369.66L2671.3 2330.93L2640.39 2290.05L2609.34 2246.94L2578.16 2201.57L2546.84 2153.87L2515.37 2103.77L2483.77 2051.23L2457.26 2088.36L2430.77 2124.61L2404.27 2159.96L2377.74 2194.43L2351.17 2228L2324.53 2260.67L2297.8 2292.44L2270.95 2323.3L2243.98 2353.26L2216.85 2382.31L2189.54 2410.45L2162.04 2437.68L2134.32 2463.98L2106.36 2489.37L2078.15 2513.84L2049.65 2537.38L2020.85 2559.99L1991.73 2581.67L1962.26 2602.41L1932.42 2622.22L1902.2 2641.09L1871.58 2659.02L1840.52 2676L1809.01 2692.04L1777.03 2707.12L1744.56 2721.25L1711.58 2734.43L1678.06 2746.65L1643.98 2757.9L1609.32 2768.19L1574.07 2777.52L1538.2 2785.87L1501.68 2793.25L1464.51 2799.66L1426.65 2805.09L1388.09 2809.54L1348.8 2813L1308.76 2815.48L1267.96 2816.97L1226.36 2817.46L1182.88 2816.49L1139.43 2813.58L1096.04 2808.76L1052.79 2802.03L1009.73 2793.42L966.91 2782.95L924.39 2770.63L882.23 2756.48L840.48 2740.52L799.19 2722.76L758.44 2703.22L718.26 2681.93L678.72 2658.89L639.88 2634.13L601.78 2607.66L564.49 2579.5L528.07 2549.67L492.56 2518.18L458.02 2485.05L424.52 2450.31L392.1 2413.96L360.83 2376.03L330.75 2336.53L301.93 2295.48L274.42 2252.9L248.28 2208.8L223.57 2163.21L200.33 2116.14L178.63 2067.6L158.52 2017.62L140.06 1966.21L123.3 1913.39L108.31 1859.18L95.13 1803.59L83.83 1746.65L74.45 1688.36L67.06 1628.76L61.71 1567.84L58.46 1505.64L57.37 1442.18L58.37 1378.67L61.37 1316.37L66.33 1255.28L73.2 1195.44L81.96 1136.86L92.58 1079.57L105.01 1023.58L119.22 968.92L135.17 915.61L152.84 863.66L172.18 813.11L193.17 763.97L215.76 716.26L239.92 670.01L265.62 625.23L292.82 581.95L321.48 540.19L351.58 499.96L383.07 461.3L415.92 424.22L450.1 388.74L485.58 354.88L522.3 322.67L560.25 292.12L599.39 263.26L639.67 236.11L681.07 210.69L723.56 187.02L767.09 165.12L811.63 145.02L857.14 126.72L903.6 110.27L950.97 95.67L999.2 82.95L1048.27 72.13L1098.15 63.22L1148.78 56.26L1200.16 51.27L1252.22 48.25L1304.95 47.24L1341.5 47.59L1377.47 48.66L1412.89 50.46L1447.76 53L1482.12 56.3L1515.97 60.37L1549.32 65.23L1582.21 70.9L1614.64 77.38L1646.62 84.69L1678.19 92.86L1709.34 101.88L1740.11 111.78L1770.5 122.57L1800.54 134.27L1830.23 146.89L1859.6 160.45L1888.66 174.95L1917.43 190.42L1945.93 206.87L1974.17 224.32L2002.17 242.77L2029.94 262.25L2057.51 282.77L2084.88 304.34L2112.08 326.98L2139.12 350.7L2166.02 375.52L2192.79 401.46L2219.45 428.52L2246.03 456.72L2272.52 486.08L2298.96 516.61L2325.36 548.32L2351.73 581.24L2378.09 615.37L2404.45 650.74L2430.85 687.34L2457.28 725.21L2483.77 764.36L2498.06 745.52L2512.97 725.91L2528.49 705.58L2544.65 684.6L2561.47 663.03L2578.96 640.94L2597.14 618.4L2616.03 595.47L2635.64 572.21L2655.99 548.7L2677.09 524.99L2698.96 501.15L2721.62 477.26L2745.09 453.36L2769.38 429.53L2794.5 405.84L2820.48 382.34L2847.34 359.11L2875.08 336.21L2903.72 313.7L2933.29 291.66L2963.79 270.14L2995.25 249.21L3027.67 228.94L3061.09 209.39L3095.51 190.62L3130.95 172.71L3167.42 155.72L3204.95 139.71L3243.55 124.75L3283.24 110.91L3324.03 98.24L3365.94 86.82L3408.98 76.72L3453.18 67.98L3498.55 60.69L3545.11 54.9L3592.87 50.69L3641.84 48.11L3692.06 47.24L3737.63 48.2L3782.98 51.05ZM3584 715.24L3559.2 717.12L3534.9 719.8L3511.09 723.3L3487.73 727.6L3464.81 732.7L3442.32 738.6L3420.23 745.3L3398.53 752.8L3377.2 761.1L3356.22 770.19L3335.56 780.07L3315.23 790.74L3295.18 802.2L3275.42 814.45L3255.91 827.48L3236.64 841.29L3217.59 855.89L3198.74 871.26L3180.08 887.41L3161.59 904.34L3143.24 922.04L3125.02 940.51L3106.91 959.75L3088.89 979.76L3070.95 1000.54L3053.06 1022.08L3035.21 1044.39L3017.38 1067.45L2999.55 1091.27L2981.7 1115.85L2963.81 1141.19L2945.86 1167.28L2927.85 1194.12L2909.74 1221.7L2891.52 1250.04L2873.17 1279.13L2854.67 1308.95L2836.01 1339.52L2817.17 1370.83L2798.12 1402.88L2819.97 1436.49L2841.34 1469.54L2862.27 1501.99L2882.79 1533.85L2902.93 1565.08L2922.75 1595.68L2942.26 1625.63L2961.5 1654.91L2980.52 1683.51L2999.35 1711.4L3018.02 1738.57L3036.56 1765.01L3055.03 1790.7L3073.44 1815.62L3091.84 1839.76L3110.27 1863.09L3128.75 1885.61L3147.33 1907.29L3166.04 1928.12L3184.92 1948.08L3204 1967.16L3223.31 1985.34L3242.91 2002.6L3262.81 2018.93L3283.06 2034.31L3303.69 2048.72L3324.74 2062.15L3346.24 2074.57L3368.23 2085.98L3390.75 2096.36L3413.83 2105.68L3437.51 2113.94L3461.82 2121.12L3486.8 2127.2L3512.49 2132.16L3538.92 2135.99L3566.12 2138.67L3594.14 2140.18L3623.01 2140.51L3652.76 2139.64L3681.85 2137.67L3710.16 2134.72L3737.7 2130.78L3764.46 2125.88L3790.46 2120.02L3815.69 2113.2L3840.15 2105.43L3863.85 2096.73L3886.78 2087.11L3908.94 2076.56L3930.34 2065.1L3950.97 2052.73L3970.85 2039.48L3989.96 2025.33L4008.31 2010.31L4025.9 1994.41L4042.73 1977.66L4058.8 1960.05L4074.12 1941.59L4088.68 1922.3L4102.48 1902.18L4115.53 1881.23L4127.83 1859.48L4139.38 1836.92L4150.17 1813.57L4160.21 1789.43L4169.51 1764.51L4178.05 1738.82L4185.85 1712.36L4192.9 1685.15L4199.2 1657.2L4204.76 1628.51L4209.58 1599.09L4213.65 1568.94L4216.98 1538.09L4219.57 1506.53L4221.41 1474.27L4222.52 1441.33L4222.89 1407.71L4222.52 1373.41L4221.22 1345.57L4218.81 1318.04L4215.31 1290.84L4210.76 1264.01L4205.18 1237.55L4198.61 1211.5L4191.07 1185.86L4182.6 1160.67L4173.22 1135.95L4162.97 1111.71L4151.87 1087.97L4139.95 1064.77L4127.24 1042.11L4113.77 1020.02L4099.58 998.53L4084.68 977.64L4069.11 957.39L4052.91 937.8L4036.09 918.88L4018.69 900.66L4000.73 883.15L3982.26 866.39L3963.29 850.38L3943.85 835.16L3923.98 820.74L3903.71 807.15L3883.06 794.4L3862.06 782.52L3840.75 771.52L3819.15 761.44L3797.29 752.28L3775.2 744.08L3752.92 736.85L3730.46 730.61L3707.87 725.39L3685.16 721.2L3662.37 718.07L3639.53 716.02L3616.67 715.07L3593.82 715.24L3584 715.24ZM1229.16 697.71L1202.09 700.35L1175.69 704.03L1149.96 708.73L1124.9 714.46L1100.52 721.19L1076.81 728.91L1053.78 737.63L1031.43 747.32L1009.76 757.98L988.77 769.59L968.47 782.15L948.86 795.65L929.93 810.08L911.7 825.42L894.15 841.67L877.31 858.81L861.16 876.84L845.7 895.74L830.95 915.52L816.9 936.14L803.55 957.61L790.91 979.92L778.97 1003.05L767.75 1027L757.23 1051.75L747.43 1077.3L738.34 1103.63L729.97 1130.74L722.32 1158.61L715.38 1187.24L709.17 1216.61L703.69 1246.71L698.93 1277.54L694.89 1309.08L691.59 1341.32L689.01 1374.26L687.18 1407.88L686.07 1442.18L686.62 1470.06L688.25 1497.7L690.93 1525.06L694.64 1552.14L699.35 1578.9L705.03 1605.32L711.67 1631.37L719.23 1657.03L727.7 1682.29L737.03 1707.1L747.21 1731.46L758.21 1755.33L770.01 1778.69L782.58 1801.52L795.89 1823.79L809.92 1845.49L824.65 1866.58L840.04 1887.04L856.07 1906.85L872.72 1925.98L889.95 1944.42L907.75 1962.13L926.09 1979.09L944.94 1995.28L964.27 2010.67L984.07 2025.25L1004.3 2038.98L1024.94 2051.84L1045.96 2063.81L1067.34 2074.87L1089.06 2084.99L1111.07 2094.14L1133.37 2102.31L1155.92 2109.46L1178.7 2115.58L1201.69 2120.64L1224.84 2124.62L1248.16 2127.49L1271.59 2129.23L1295.13 2129.82L1319.94 2129.4L1344.29 2128.13L1368.2 2126.01L1391.69 2123.06L1414.77 2119.27L1437.47 2114.63L1459.8 2109.17L1481.77 2102.86L1503.42 2095.73L1524.75 2087.76L1545.79 2078.97L1566.55 2069.35L1587.05 2058.9L1607.32 2047.63L1627.36 2035.54L1647.2 2022.63L1666.86 2008.9L1686.35 1994.35L1705.69 1978.99L1724.9 1962.82L1744.01 1945.84L1763.02 1928.05L1781.96 1909.45L1800.84 1890.05L1819.68 1869.84L1838.51 1848.84L1857.34 1827.03L1876.19 1804.43L1895.07 1781.03L1914.01 1756.83L1933.02 1731.85L1952.12 1706.07L1971.33 1679.51L1990.68 1652.16L2010.17 1624.03L2029.82 1595.11L2049.66 1565.41L2069.71 1534.93L2089.97 1503.68L2110.48 1471.65L2090.08 1437.3L2070.13 1403.52L2050.58 1370.32L2031.41 1337.72L2012.57 1305.74L1994.03 1274.39L1975.75 1243.68L1957.7 1213.64L1939.84 1184.28L1922.14 1155.61L1904.56 1127.64L1887.06 1100.41L1869.61 1073.91L1852.17 1048.17L1834.71 1023.2L1817.19 999.02L1799.57 975.64L1781.82 953.08L1763.9 931.35L1745.78 910.48L1727.42 890.47L1708.78 871.34L1689.83 853.11L1670.54 835.79L1650.86 819.4L1630.77 803.96L1610.21 789.47L1589.17 775.96L1567.6 763.44L1545.47 751.92L1522.74 741.43L1499.38 731.98L1475.34 723.58L1450.6 716.25L1425.11 710L1398.85 704.85L1371.78 700.83L1343.85 697.93L1315.04 696.18L1285.3 695.59L1256.9 696.12L1229.16 697.71Z" id="c2FSAKf886"></path></defs><g><g><use xlink:href="#c2FSAKf886" opacity="1" fill="#e63312" fill-opacity="1"></use><g><use xlink:href="#c2FSAKf886" opacity="1" fill-opacity="0" stroke="#000000" stroke-width="1" stroke-opacity="0"></use></g></g></g></svg>